<?xml version="1.0" encoding="UTF-8"?>
<!DOCTYPE svg PUBLIC "-//W3C//DTD SVG 1.1//EN" "http://www.w3.org/Graphics/SVG/1.1/DTD/svg11.dtd">
<svg xmlns="http://www.w3.org/2000/svg" version="1.1" width="500px" height="82px" style="shape-rendering:geometricPrecision; text-rendering:geometricPrecision; image-rendering:optimizeQuality; fill-rule:evenodd; clip-rule:evenodd" xmlns:xlink="http://www.w3.org/1999/xlink">
<g><path style="opacity:1" fill="#060606" d="M -0.5,-0.5 C 166.167,-0.5 332.833,-0.5 499.5,-0.5C 499.5,26.8333 499.5,54.1667 499.5,81.5C 332.833,81.5 166.167,81.5 -0.5,81.5C -0.5,54.1667 -0.5,26.8333 -0.5,-0.5 Z M 177.5,17.5 C 178.11,18.391 178.443,19.391 178.5,20.5C 174.114,20.9658 170.114,22.2991 166.5,24.5C 164.167,24.8333 162.833,26.1667 162.5,28.5C 160.348,30.6071 159.348,33.2738 159.5,36.5C 159.453,41.0552 161.119,44.7218 164.5,47.5C 164.973,48.9063 165.973,49.573 167.5,49.5C 170.841,51.2358 174.508,52.2358 178.5,52.5C 178.542,54.8489 177.375,56.1822 175,56.5C 169.64,55.553 164.807,53.553 160.5,50.5C 160.573,48.9731 159.906,47.9731 158.5,47.5C 152.442,33.5629 156.442,23.7296 170.5,18C 172.81,17.5034 175.143,17.3367 177.5,17.5 Z M 110.5,20.5 C 110.973,21.9063 111.973,22.573 113.5,22.5C 113.973,23.9063 114.973,24.573 116.5,24.5C 120.012,28.8634 123.012,33.5301 125.5,38.5C 126.263,42.1368 127.597,45.4701 129.5,48.5C 132.47,52.9883 136.47,54.155 141.5,52C 143.373,49.7911 145.54,47.9578 148,46.5C 148.25,50.9444 146.084,53.7777 141.5,55C 136.939,55.9449 132.606,55.4449 128.5,53.5C 127.833,52.1667 126.833,51.1667 125.5,50.5C 124.159,45.4727 122.659,40.4727 121,35.5C 120.617,34.944 120.117,34.6107 119.5,34.5C 119.573,32.9731 118.906,31.9731 117.5,31.5C 112.348,25.0813 105.681,20.9146 97.5,19C 101.956,18.4222 106.289,18.9222 110.5,20.5 Z M 341.5,38.5 C 340.076,40.5145 339.41,42.8478 339.5,45.5C 339.475,48.9604 338.808,52.2937 337.5,55.5C 336.335,47.5208 336.168,39.5208 337,31.5C 337.333,31.1667 337.667,30.8333 338,30.5C 338.833,31.5 339.667,32.5 340.5,33.5C 343.288,32.0219 346.122,30.6886 349,29.5C 349.692,30.0253 350.192,30.6919 350.5,31.5C 348.465,33.1947 346.132,34.528 343.5,35.5C 342.575,36.3569 341.908,37.3569 341.5,38.5 Z M 147.5,34.5 C 147.608,36.5138 146.942,38.1805 145.5,39.5C 144.508,39.3284 143.842,39.6618 143.5,40.5C 141.973,40.427 140.973,41.0937 140.5,42.5C 137.828,43.5014 135.162,44.5014 132.5,45.5C 131.624,45.6309 130.957,45.2975 130.5,44.5C 133.663,42.0843 136.996,39.9177 140.5,38C 141.451,37.2825 141.617,36.4491 141,35.5C 136.308,33.6481 132.308,34.6481 129,38.5C 128.617,37.944 128.117,37.6107 127.5,37.5C 127.05,33.776 128.717,31.6093 132.5,31C 138.183,29.6763 143.183,30.843 147.5,34.5 Z M 208.5,49.5 C 207.094,49.9731 206.427,50.9731 206.5,52.5C 201.167,55.8483 195.501,56.3483 189.5,54C 180.424,44.0509 182.09,36.3842 194.5,31C 202.573,30.0556 207.739,33.5556 210,41.5C 210.428,44.3217 209.928,46.9884 208.5,49.5 Z M 248.5,37.5 C 248.573,35.9731 247.906,34.9731 246.5,34.5C 243.418,32.9312 240.585,33.2645 238,35.5C 236.63,41.7416 236.13,48.0749 236.5,54.5C 235.167,55.8333 233.833,55.8333 232.5,54.5C 232.666,49.1563 232.499,43.8229 232,38.5C 230.058,33.2953 226.558,32.1286 221.5,35C 220.874,35.7504 220.374,36.5838 220,37.5C 217.693,61.4129 216.693,61.4129 217,37.5C 218.196,33.1345 221.029,30.8011 225.5,30.5C 231.178,33.0593 236.845,33.0593 242.5,30.5C 246.768,30.8777 249.935,32.8777 252,36.5C 252.831,42.8595 252.664,49.1928 251.5,55.5C 250.364,49.3815 249.364,43.3815 248.5,37.5 Z M 284.5,34.5 C 282.5,34.5 281.5,35.5 281.5,37.5C 280.79,43.467 280.123,49.467 279.5,55.5C 278.833,55.1667 278.167,54.8333 277.5,54.5C 277.666,49.4889 277.499,44.4889 277,39.5C 276.768,38.2625 276.268,37.2625 275.5,36.5C 275.5,35.1667 274.833,34.5 273.5,34.5C 270.345,33.0346 267.511,33.7013 265,36.5C 262.536,42.3487 262.036,48.3487 263.5,54.5C 262.609,55.1098 261.609,55.4431 260.5,55.5C 260.123,48.7431 260.623,42.0764 262,35.5C 263.415,32.2946 265.915,30.6279 269.5,30.5C 272.796,31.1151 275.962,32.1151 279,33.5C 283.579,30.5174 288.412,30.0174 293.5,32C 295.068,34.3041 296.235,36.8041 297,39.5C 297.499,44.8229 297.666,50.1563 297.5,55.5C 296.5,55.5 295.5,55.5 294.5,55.5C 294.87,49.0749 294.37,42.7416 293,36.5C 290.489,33.7013 287.655,33.0346 284.5,34.5 Z M 322.5,40.5 C 320.973,40.427 319.973,41.0937 319.5,42.5C 316.95,43.3578 314.45,44.3578 312,45.5C 311.833,45.1667 311.667,44.8333 311.5,44.5C 314.362,41.8125 317.528,39.4791 321,37.5C 321.424,34.6723 320.09,33.339 317,33.5C 314.325,33.6573 312.159,34.6573 310.5,36.5C 309.542,36.9528 308.708,37.6195 308,38.5C 307.195,41.6965 307.362,44.6965 308.5,47.5C 311.634,52.1191 315.968,53.6191 321.5,52C 323.35,49.9824 325.35,48.1491 327.5,46.5C 328.469,48.6165 328.136,50.6165 326.5,52.5C 324.973,52.427 323.973,53.0937 323.5,54.5C 321.184,55.1599 318.851,55.8266 316.5,56.5C 312.895,55.6921 309.561,54.3588 306.5,52.5C 306.573,50.9731 305.906,49.9731 304.5,49.5C 302.607,33.5573 309.273,28.0573 324.5,33C 325.833,34.3333 327.167,35.6667 328.5,37C 326.273,37.941 324.273,39.1077 322.5,40.5 Z M 368.5,30.5 C 369.11,31.391 369.443,32.391 369.5,33.5C 366.447,33.1107 363.78,33.7773 361.5,35.5C 359.5,35.5 358.5,36.5 358.5,38.5C 355.516,43.1017 356.182,47.2683 360.5,51C 363.568,52.0158 366.568,53.1825 369.5,54.5C 360.165,56.659 354.498,52.9923 352.5,43.5C 354.24,34.7612 359.573,30.4279 368.5,30.5 Z M 394.5,31.5 C 396.167,33.5 397.833,35.5 399.5,37.5C 397.847,37.6596 396.514,38.3263 395.5,39.5C 393.973,39.427 392.973,40.0937 392.5,41.5C 389.282,42.6918 386.115,44.0251 383,45.5C 382.383,44.5509 382.549,43.7175 383.5,43C 387.04,41.0688 390.374,38.9021 393.5,36.5C 390.413,33.0111 387.08,32.6778 383.5,35.5C 381.5,35.5 380.5,36.5 380.5,38.5C 377.954,41.8678 377.954,45.2012 380.5,48.5C 380.5,49.8333 381.167,50.5 382.5,50.5C 384.013,52.2413 386.013,53.2413 388.5,53.5C 392.384,51.7905 395.884,49.4571 399,46.5C 400.615,47.656 400.615,48.9893 399,50.5C 390.027,58.8343 382.361,57.8343 376,47.5C 375.131,34.2081 381.298,28.8748 394.5,31.5 Z M 129.5,59.5 C 130.675,59.281 131.675,59.6143 132.5,60.5C 130.948,61.7979 129.948,61.4646 129.5,59.5 Z M 141.5,59.5 C 143.552,60.0527 143.885,61.0527 142.5,62.5C 141.89,61.609 141.557,60.609 141.5,59.5 Z"/></g>
<g><path style="opacity:0.349" fill="#939393" d="M 177.5,17.5 C 179.552,18.0527 179.885,19.0527 178.5,20.5C 178.443,19.391 178.11,18.391 177.5,17.5 Z"/></g>
<g><path style="opacity:0.373" fill="#a0a0a0" d="M 110.5,20.5 C 112.027,20.427 113.027,21.0937 113.5,22.5C 111.973,22.573 110.973,21.9063 110.5,20.5 Z"/></g>
<g><path style="opacity:0.675" fill="#999999" d="M 113.5,22.5 C 115.027,22.427 116.027,23.0937 116.5,24.5C 114.973,24.573 113.973,23.9063 113.5,22.5 Z"/></g>
<g><path style="opacity:0.675" fill="#898989" d="M 166.5,24.5 C 165.5,26.1667 164.167,27.5 162.5,28.5C 162.833,26.1667 164.167,24.8333 166.5,24.5 Z"/></g>
<g><path style="opacity:0.659" fill="#949494" d="M 368.5,30.5 C 370.552,31.0527 370.885,32.0527 369.5,33.5C 369.443,32.391 369.11,31.391 368.5,30.5 Z"/></g>
<g><path style="opacity:0.839" fill="#959595" d="M 394.5,31.5 C 396.716,32.2026 398.549,33.5359 400,35.5C 400.692,36.4368 400.525,37.1034 399.5,37.5C 397.833,35.5 396.167,33.5 394.5,31.5 Z"/></g>
<g><path style="opacity:0.525" fill="#8a8a8a" d="M 117.5,31.5 C 118.906,31.9731 119.573,32.9731 119.5,34.5C 118.094,34.0269 117.427,33.0269 117.5,31.5 Z"/></g>
<g><path style="opacity:1" fill="#202020" d="M 194.5,52.5 C 194.027,51.0937 193.027,50.427 191.5,50.5C 185.571,43.9629 186.571,38.4629 194.5,34C 204.149,34.3218 207.649,39.1551 205,48.5C 202.295,52.6264 198.795,53.9597 194.5,52.5 Z"/></g>
<g><path style="opacity:0.004" fill="#c3c3c3" d="M 273.5,34.5 C 274.833,34.5 275.5,35.1667 275.5,36.5C 274.5,36.1667 273.833,35.5 273.5,34.5 Z"/></g>
<g><path style="opacity:0.999" fill="#3b3b3b" d="M 132.5,45.5 C 131.1,46.1001 130.1,47.1001 129.5,48.5C 127.597,45.4701 126.263,42.1368 125.5,38.5C 126.967,41.2583 127.633,40.925 127.5,37.5C 128.117,37.6107 128.617,37.944 129,38.5C 132.308,34.6481 136.308,33.6481 141,35.5C 141.617,36.4491 141.451,37.2825 140.5,38C 136.996,39.9177 133.663,42.0843 130.5,44.5C 130.957,45.2975 131.624,45.6309 132.5,45.5 Z"/></g>
<g><path style="opacity:0.592" fill="#7c7c7c" d="M 246.5,34.5 C 247.906,34.9731 248.573,35.9731 248.5,37.5C 247.094,37.0269 246.427,36.0269 246.5,34.5 Z"/></g>
<g><path style="opacity:0.341" fill="#a9a9a9" d="M 284.5,34.5 C 283.833,35.8333 282.833,36.8333 281.5,37.5C 281.5,35.5 282.5,34.5 284.5,34.5 Z"/></g>
<g><path style="opacity:0.702" fill="#949494" d="M 147.5,34.5 C 148.598,35.6009 148.765,36.9343 148,38.5C 147.329,39.2524 146.496,39.5858 145.5,39.5C 146.942,38.1805 147.608,36.5138 147.5,34.5 Z"/></g>
<g><path style="opacity:0.545" fill="#979797" d="M 361.5,35.5 C 360.833,36.8333 359.833,37.8333 358.5,38.5C 358.5,36.5 359.5,35.5 361.5,35.5 Z"/></g>
<g><path style="opacity:0.424" fill="#a6a6a6" d="M 383.5,35.5 C 382.833,36.8333 381.833,37.8333 380.5,38.5C 380.5,36.5 381.5,35.5 383.5,35.5 Z"/></g>
<g><path style="opacity:0.812" fill="#7a7a7a" d="M 395.5,39.5 C 395.027,40.9063 394.027,41.573 392.5,41.5C 392.973,40.0937 393.973,39.427 395.5,39.5 Z"/></g>
<g><path style="opacity:0.8" fill="#7b7b7b" d="M 143.5,40.5 C 143.027,41.9063 142.027,42.573 140.5,42.5C 140.973,41.0937 141.973,40.427 143.5,40.5 Z"/></g>
<g><path style="opacity:0.824" fill="#767676" d="M 322.5,40.5 C 322.027,41.9063 321.027,42.573 319.5,42.5C 319.973,41.0937 320.973,40.427 322.5,40.5 Z"/></g>
<g><path style="opacity:0.863" fill="#5b5b5b" d="M 310.5,36.5 C 308.78,39.8892 308.113,43.5559 308.5,47.5C 307.362,44.6965 307.195,41.6965 308,38.5C 308.708,37.6195 309.542,36.9528 310.5,36.5 Z"/></g>
<g><path style="opacity:0.62" fill="#797979" d="M 341.5,38.5 C 341.59,41.1522 340.924,43.4855 339.5,45.5C 339.41,42.8478 340.076,40.5145 341.5,38.5 Z"/></g>
<g><path style="opacity:0.776" fill="#858585" d="M 158.5,47.5 C 159.906,47.9731 160.573,48.9731 160.5,50.5C 159.094,50.0269 158.427,49.0269 158.5,47.5 Z"/></g>
<g><path style="opacity:0.635" fill="#7b7b7b" d="M 164.5,47.5 C 166.027,47.427 167.027,48.0937 167.5,49.5C 165.973,49.573 164.973,48.9063 164.5,47.5 Z"/></g>
<g><path style="opacity:0.004" fill="#b6b6b6" d="M 380.5,48.5 C 381.5,48.8333 382.167,49.5 382.5,50.5C 381.167,50.5 380.5,49.8333 380.5,48.5 Z"/></g>
<g><path style="opacity:0.737" fill="#8f8f8f" d="M 208.5,49.5 C 208.573,51.0269 207.906,52.0269 206.5,52.5C 206.427,50.9731 207.094,49.9731 208.5,49.5 Z"/></g>
<g><path style="opacity:0.882" fill="#7c7c7c" d="M 125.5,50.5 C 126.833,51.1667 127.833,52.1667 128.5,53.5C 126.5,53.5 125.5,52.5 125.5,50.5 Z"/></g>
<g><path style="opacity:0.467" fill="#8f8f8f" d="M 191.5,50.5 C 193.027,50.427 194.027,51.0937 194.5,52.5C 192.973,52.573 191.973,51.9063 191.5,50.5 Z"/></g>
<g><path style="opacity:0.616" fill="#7f7f7f" d="M 304.5,49.5 C 305.906,49.9731 306.573,50.9731 306.5,52.5C 305.094,52.0269 304.427,51.0269 304.5,49.5 Z"/></g>
<g><path style="opacity:0.796" fill="#757575" d="M 326.5,52.5 C 326.027,53.9063 325.027,54.573 323.5,54.5C 323.973,53.0937 324.973,52.427 326.5,52.5 Z"/></g>
<g><path style="opacity:0.047" fill="#cbcbcb" d="M 232.5,54.5 C 233.833,55.8333 235.167,55.8333 236.5,54.5C 236.38,55.5862 235.713,56.2528 234.5,56.5C 233.287,56.2528 232.62,55.5862 232.5,54.5 Z"/></g>
<g><path style="opacity:0.514" fill="#bababa" d="M 263.5,54.5 C 262.947,56.5518 261.947,56.8852 260.5,55.5C 261.609,55.4431 262.609,55.1098 263.5,54.5 Z"/></g>
<g><path style="opacity:0.463" fill="#bdbdbd" d="M 277.5,54.5 C 278.167,54.8333 278.833,55.1667 279.5,55.5C 278.377,56.7574 277.711,56.4241 277.5,54.5 Z"/></g>
<g><path style="opacity:0.306" fill="#9d9d9d" d="M 141.5,59.5 C 141.557,60.609 141.89,61.609 142.5,62.5C 140.448,61.9473 140.115,60.9473 141.5,59.5 Z"/></g>
</svg>
